<svg width="54" height="50" viewBox="0 0 54 50" fill="none" xmlns="http://www.w3.org/2000/svg">
<g clip-path="url(#clip0_147101_507)">
<path d="M36.4999 13.5003H33.3333C33.3333 10.0012 30.4991 7.16699 26.9999 7.16699C23.5008 7.16699 20.6666 10.0012 20.6666 13.5003H17.4999C15.7583 13.5003 14.3333 14.9253 14.3333 16.667V35.667C14.3333 37.4087 15.7583 38.8337 17.4999 38.8337H36.4999C38.2416 38.8337 39.6666 37.4087 39.6666 35.667V16.667C39.6666 14.9253 38.2416 13.5003 36.4999 13.5003ZM26.9999 10.3337C28.7416 10.3337 30.1666 11.7587 30.1666 13.5003H23.8333C23.8333 11.7587 25.2583 10.3337 26.9999 10.3337ZM36.4999 35.667H17.4999V16.667H20.6666V19.8337C20.6666 20.7045 21.3791 21.417 22.2499 21.417C23.1208 21.417 23.8333 20.7045 23.8333 19.8337V16.667H30.1666V19.8337C30.1666 20.7045 30.8791 21.417 31.7499 21.417C32.6208 21.417 33.3333 20.7045 33.3333 19.8337V16.667H36.4999V35.667Z" fill="#002F52"/>
</g>
<defs>
<clipPath id="clip0_147101_507">
<rect width="38" height="38" fill="white" transform="translate(8 4)"/>
</clipPath>
</defs>
</svg>
